<svg aria-hidden="true" style="width:0;height:0;position:absolute;overflow:hidden" xmlns="http://www.w3.org/2000/svg"><defs><symbol id="icon-close" viewBox="0 0 32 32"><path d="m26.667 7.303-1.97-1.97-7.808 7.808-7.808-7.808-1.97 1.97 7.808 7.808-7.808 7.808 1.97 1.97 7.808-7.808 7.808 7.808 1.97-1.97-7.808-7.808 7.808-7.808z"/></symbol><symbol id="icon-moon" viewBox="0 0 32 32"><path fill="none" stroke="#fff" style="stroke:var(--color1,#fff)" stroke-linejoin="round" stroke-linecap="round" stroke-width="2.667" d="M2.704 16.563c.496 6.865 6.512 12.45 13.712 12.757 5.08.213 9.623-2.079 12.349-5.692 1.129-1.48.523-2.466-1.363-2.133-.922.16-1.872.227-2.864.187-6.732-.267-12.239-5.719-12.267-12.157a11.525 11.525 0 0 1 1.033-4.865c.743-1.653-.151-2.439-1.872-1.733-5.452 2.226-9.183 7.545-8.728 13.636z"/></symbol><symbol id="icon-search" viewBox="0 0 32 32"><path stroke-linejoin="round" stroke-linecap="round" stroke-width="2.311" d="M14.667 25.333c5.891 0 10.667-4.776 10.667-10.667S20.558 3.999 14.667 3.999 4 8.775 4 14.666s4.776 10.667 10.667 10.667zM28.001 28l-5.8-5.8"/></symbol><symbol id="icon-sun" viewBox="0 0 32 32"><path fill="none" stroke="#fff" style="stroke:var(--color1,#fff)" stroke-linejoin="round" stroke-linecap="round" stroke-width="2.462" d="M16 24.615a8.615 8.615 0 1 0 0-17.23 8.615 8.615 0 0 0 0 17.23z"/><path fill="none" stroke="#fff" style="stroke:var(--color1,#fff)" stroke-linejoin="round" stroke-linecap="round" stroke-width="3.692" d="m25.49 6.51.176-.176M6.334 25.666l.176-.176M16 2.57v-.108m0 27.076v-.108M2.57 16h-.108m27.076 0h-.108M6.51 6.51l-.176-.176m19.332 19.332-.176-.176"/></symbol></defs></svg>